Coordinates
version=1
nRows=29
nColumns=24
inDegrees=yes

Units are S.I. units (second, meters, Newtons, ...)
Angles are in degrees.

endheader
time	pelvis_tilt	pelvis_list	pelvis_rotation	pelvis_tx	pelvis_ty	pelvis_tz	hip_flexion_r	hip_adduction_r	hip_rotation_r	knee_angle_r	ankle_angle_r	subtalar_angle_r	mtp_angle_r	hip_flexion_l	hip_adduction_l	hip_rotation_l	knee_angle_l	ankle_angle_l	subtalar_angle_l	mtp_angle_l	lumbar_extension	lumbar_bending	lumbar_rotation
      1.31700000	     -4.63635879	      4.54241653	     -2.17505990	      0.26162455	      0.91579421	      0.31917790	     18.31651099	     -9.88141027	    -11.21553943	    -69.41715867	     -5.55260017	      3.47500897	      9.10362728	     12.57582342	      8.96476071	      1.40428733	    -12.34072928	      2.08082775	    -14.29289737	      1.43839456	     -5.33906088	     -7.14544823	      1.99561945
      1.32116667	     -4.68864863	      4.33587834	     -2.06172296	      0.26666341	      0.91674374	      0.31900023	     18.96137946	     -9.66228733	    -11.41563210	    -69.13828687	     -4.91918682	      3.26615247	      9.06729814	     12.03325419	      8.77508517	      1.57292752	    -11.87953187	      2.10304547	    -14.19553748	      1.43340930	     -5.29208928	     -6.91416161	      1.91124565
      1.32533333	     -4.69489426	      4.09076541	     -1.89990502	      0.27168407	      0.91777467	      0.31872956	     19.50990597	     -9.41796732	    -11.68049072	    -68.75804506	     -4.34939086	      3.14208304	      8.92147923	     11.42231278	      8.56536561	      1.90548373	    -11.38729679	      2.12473529	    -14.26279482	      1.41067636	     -5.34746178	     -6.58403655	      1.55132174
      1.32950000	     -4.71484693	      3.85420615	     -1.74339064	      0.27670267	      0.91874242	      0.31848191	     20.06322472	     -9.17297552	    -11.93221418	    -68.31894192	     -3.77217022	      2.99262612	      8.78277771	     10.84063672	      8.35240543	      2.16537350	    -10.91458364	      2.13544816	    -14.25496409	      1.38815174	     -5.36147136	     -6.28951918	      1.31166018
      1.33366667	     -4.75168165	      3.61764176	     -1.58126671	      0.28169472	      0.91964511	      0.31824482	     20.62243918	     -8.92280546	    -12.18564487	    -67.82239251	     -3.18279732	      2.83398704	      8.73589495	     10.30189170	      8.12939285	      2.35547953	    -10.48152687	      2.13896231	    -14.16087581	      1.37997237	     -5.34286309	     -6.00809276	      1.19946161
      1.33783333	     -4.72886132	      3.34413148	     -1.39281382	      0.28666892	      0.92064885	      0.31797071	     21.07537015	     -8.63493167	    -12.46869286	    -67.21597792	     -2.69502186	      2.72407844	      8.63462558	      9.67895816	      7.87558446	      2.67273019	    -10.01288406	      2.17741070	    -14.14529392	      1.36294490	     -5.45480900	     -5.66769226	      0.89312304
      1.34200000	     -4.73610604	      3.09838586	     -1.20471196	      0.29165617	      0.92153547	      0.31768724	     21.55495002	     -8.38517807	    -12.75884983	    -66.57580733	     -2.16036152	      2.58897348	      8.57536143	      9.10863986	      7.64123437	      2.88586208	     -9.57247267	      2.17763284	    -14.07838909	      1.35199059	     -5.46936639	     -5.34205213	      0.71043919
      1.34616667	     -4.67025915	      2.84861205	     -0.99978131	      0.29664184	      0.92252287	      0.31738314	     21.92330991	     -8.13456467	    -13.06662666	    -65.84703524	     -1.72413716	      2.46617356	      8.34706638	      8.42317043	      7.41014562	      3.22403395	     -9.05566678	      2.16383226	    -14.14948412	      1.30878979	     -5.59930529	     -5.04191940	      0.20441721
      1.35033333	     -4.63397848	      2.57171226	     -0.79177757	      0.30161201	      0.92342767	      0.31708761	     22.30248092	     -7.84742344	    -13.37760944	    -65.04277143	     -1.30681352	      2.38295954	      8.22329944	      7.80714081	      7.13696059	      3.47912866	     -8.61419744	      2.23377069	    -14.08614455	      1.28717821	     -5.67488852	     -4.69462079	      0.00901096
      1.35450000	     -4.57978568	      2.30420475	     -0.57126654	      0.30655994	      0.92431147	      0.31678437	     22.64610396	     -7.57257123	    -13.69827747	    -64.18369927	     -0.89205575	      2.27408074	      8.09450759	      7.17554095	      6.86980326	      3.73415250	     -8.16771010	      2.26267732	    -14.03052074	      1.26372141	     -5.78420319	     -4.36033880	     -0.27301606
      1.35866667	     -4.51821177	      2.04942796	     -0.33923013	      0.31147035	      0.92514978	      0.31646942	     22.96955912	     -7.31218380	    -14.02264650	    -63.27527835	     -0.47794476	      2.14531679	      7.89674840	      6.54246556	      6.61336577	      4.00149473	     -7.72010980	      2.25038487	    -13.99443675	      1.22652378	     -5.91962265	     -4.04548384	     -0.63852149
      1.36283333	     -4.44768142	      1.78713347	     -0.10452135	      0.31638614	      0.92596294	      0.31615886	     23.26041635	     -7.04180412	    -14.35015419	    -62.29388103	     -0.11442681	      2.04081621	      7.71734083	      5.90664007	      6.34140596	      4.24873886	     -7.28413026	      2.28520215	    -13.93045660	      1.19413870	     -6.04513135	     -3.71696479	     -0.92342556
      1.36700000	     -4.36927915	      1.52883746	      0.13656176	      0.32128081	      0.92673476	      0.31584844	     23.52702854	     -6.77469995	    -14.68001503	    -61.25464600	      0.21764824	      1.93608191	      7.55149202	      5.27127961	      6.06810110	      4.48698183	     -6.85781238	      2.32848682	    -13.85570949	      1.16566214	     -6.18378538	     -3.39081796	     -1.21620725
      1.37116667	     -4.28248630	      1.28068220	      0.38215663	      0.32616685	      0.92746091	      0.31553151	     23.76921238	     -6.51824545	    -15.01062713	    -60.16265032	      0.52568487	      1.82258362	      7.37461203	      4.63082014	      5.80047870	      4.71766360	     -6.43098711	      2.36532051	    -13.78032496	      1.13707147	     -6.32869286	     -3.07496103	     -1.53281188
      1.37533333	     -4.20626057	      1.02393333	      0.63823757	      0.33103834	      0.92812629	      0.31522346	     24.00036022	     -6.25024569	    -15.34982199	    -59.00127383	      0.79834318	      1.73900704	      7.28422169	      4.02464776	      5.51653781	      4.91722317	     -6.04420286	      2.43244206	    -13.68193481	      1.12537666	     -6.44833891	     -2.75288648	     -1.73861072
      1.37950000	     -4.11220312	      0.78992358	      0.89120463	      0.33589892	      0.92875005	      0.31492447	     24.20307581	     -6.00142804	    -15.67158551	    -57.79824900	      1.04987673	      1.61544857	      7.19719779	      3.39431075	      5.25022186	      5.12164260	     -5.63923826	      2.47891180	    -13.57180292	      1.11563055	     -6.60335003	     -2.44938447	     -2.01485784
      1.38366667	     -4.01118171	      0.57109795	      1.14366586	      0.34075288	      0.92931988	      0.31463537	     24.38550123	     -5.76421832	    -15.98379202	    -56.54728172	      1.26180793	      1.48210515	      7.10524502	      2.75699399	      4.99454150	      5.32270224	     -5.23002930	      2.53446688	    -13.46765591	      1.10731806	     -6.76290940	     -2.16776066	     -2.32352478
      1.38783333	     -3.89014631	      0.38119288	      1.38651519	      0.34560566	      0.92984546	      0.31437434	     24.54046851	     -5.54980003	    -16.27053629	    -55.26203815	      1.42096556	      1.31367939	      6.95553605	      2.08275240	      4.76233555	      5.53278488	     -4.78577074	      2.60380075	    -13.36554510	      1.09528223	     -6.94766775	     -1.91380308	     -2.73733880
      1.39200000	     -3.81079814	      0.17651586	      1.64934698	      0.35042811	      0.93026670	      0.31410441	     24.71309046	     -5.31831351	    -16.57033244	    -53.90378944	      1.59768502	      1.19850747	      6.86339591	      1.49898045	      4.50969451	      5.70057405	     -4.42239385	      2.64969696	    -13.24761925	      1.09040555	     -7.07686337	     -1.64842634	     -2.97408821
      1.39616667	     -3.69354830	      0.01379278	      1.89196786	      0.35526451	      0.93065845	      0.31388187	     24.84509782	     -5.11748688	    -16.82838887	    -52.52679109	      1.72121199	      0.99813103	      6.69101239	      0.84027947	      4.29272874	      5.88657110	     -3.99074987	      2.70531848	    -13.11754004	      1.08446584	     -7.26594948	     -1.43250666	     -3.38318026
      1.40033333	     -3.61732721	     -0.15963371	      2.14726237	      0.36009653	      0.93094523	      0.31364342	     24.99282062	     -4.90821334	    -17.10090542	    -51.07840919	      1.82614554	      0.87953145	      6.60286677	      0.26249477	      4.06223078	      6.03154974	     -3.62798454	      2.77228081	    -12.98740111	      1.08496884	     -7.37681143	     -1.19942197	     -3.59569290
      1.40450000	     -3.52005651	     -0.30648830	      2.38783076	      0.36494169	      0.93118954	      0.31344701	     25.10993514	     -4.71118180	    -17.33580181	    -49.59642003	      1.89607513	      0.70140762	      6.51054904	     -0.35446886	      3.85191272	      6.17115918	     -3.23265295	      2.83672016	    -12.83450283	      1.08813322	     -7.52362831	     -1.00243694	     -3.88537071
      1.40866667	     -3.42908006	     -0.43400054	      2.62355896	      0.36978542	      0.93135741	      0.31327928	     25.22078453	     -4.52641649	    -17.54996699	    -48.07451969	      1.93637065	      0.51997688	      6.41414100	     -0.96111477	      3.65665451	      6.30122758	     -2.84289888	      2.90805898	    -12.68002302	      1.09471725	     -7.66122803	     -0.82893818	     -4.19111858
      1.41283333	     -3.34638447	     -0.54430851	      2.85180720	      0.37464309	      0.93144493	      0.31313067	     25.32713255	     -4.35153328	    -17.74181680	    -46.51641143	      1.95949066	      0.33392120	      6.31873125	     -1.55859660	      3.47615475	      6.41806233	     -2.45576205	      2.97485298	    -12.52123850	      1.10427489	     -7.78711759	     -0.67335776	     -4.48750586
      1.41700000	     -3.25270742	     -0.62822724	      3.06162677	      0.37951180	      0.93147344	      0.31303292	     25.41470487	     -4.18913771	    -17.89706081	    -44.93098140	      1.93022091	      0.11093134	      6.18465311	     -2.18108110	      3.31747589	      6.52783038	     -2.04671134	      3.07133043	    -12.35186807	      1.12134184	     -7.93521225	     -0.55752820	     -4.83932091
      1.42116667	     -3.18686693	     -0.70698882	      3.27644687	      0.38439786	      0.93140829	      0.31293773	     25.50809386	     -4.02862214	    -18.04313986	    -43.29452303	      1.91212479	     -0.08204568	      6.05453731	     -2.75839565	      3.16204214	      6.62393511	     -1.66816136	      3.14459233	    -12.17998477	      1.14114767	     -8.03848007	     -0.44511149	     -5.12939852
      1.42533333	     -3.14428986	     -0.77516469	      3.49204727	      0.38929864	      0.93125464	      0.31284894	     25.60516453	     -3.87622227	    -18.17915945	    -41.61475430	      1.90151490	     -0.23456987	      5.96525812	     -3.29274607	      3.01736702	      6.69313420	     -1.32723401	      3.18931971	    -12.01668738	      1.15785062	     -8.09988643	     -0.33510243	     -5.35116996
      1.42950000	     -3.06753897	     -0.81553606	      3.67438976	      0.39422199	      0.93107140	      0.31283543	     25.66151781	     -3.72638824	    -18.25527711	    -39.91474085	      1.81254636	     -0.48297755	      5.82859698	     -3.89983259	      2.89405433	      6.77430812	     -0.92474864	      3.29796084	    -11.82115428	      1.18815133	     -8.22577166	     -0.28087389	     -5.67862973
      1.43366667	     -3.04116740	     -0.85979640	      3.87062394	      0.39917557	      0.93077015	      0.31280860	     25.74229409	     -3.58060838	    -18.34974260	    -38.16682226	      1.76350840	     -0.64205109	      5.73186210	     -4.42309024	      2.76794798	      6.82962890	     -0.58116023	      3.35704961	    -11.65492395	      1.21172838	     -8.27140215	     -0.21142272	     -5.90251375
